<svg xmlns="http://www.w3.org/2000/svg" xmlns:xlink="http://www.w3.org/1999/xlink" viewBox="0,0,256,256" width="256px" height="256px" fill-rule="nonzero"><defs><radialGradient cx="32" cy="32.5" r="30.751" gradientUnits="userSpaceOnUse" id="color-1"><stop offset="0" stop-color="#c5f1ff" stop-opacity="0.01176"></stop><stop offset="0.35" stop-color="#cdf3ff" stop-opacity="0"></stop><stop offset="0.907" stop-color="#e4faff" stop-opacity="0"></stop><stop offset="1" stop-color="#e9fbff" stop-opacity="0"></stop></radialGradient><radialGradient cx="32" cy="32.5" r="30.751" gradientUnits="userSpaceOnUse" id="color-2"><stop offset="0" stop-color="#b8efff" stop-opacity="0"></stop><stop offset="0.642" stop-color="#d4f6ff" stop-opacity="0"></stop><stop offset="1" stop-color="#e5faff" stop-opacity="0"></stop></radialGradient><linearGradient x1="32" y1="59.075" x2="32" y2="15.075" gradientUnits="userSpaceOnUse" id="color-3"><stop offset="0" stop-color="#ffc050"></stop><stop offset="0.004" stop-color="#ffc050"></stop><stop offset="0.641" stop-color="#ffbe75"></stop><stop offset="1" stop-color="#ffbd85"></stop><stop offset="1" stop-color="#ffbd85"></stop></linearGradient><linearGradient x1="21" y1="64.039" x2="21" y2="18.283" gradientUnits="userSpaceOnUse" id="color-4"><stop offset="0" stop-color="#ffc96a"></stop><stop offset="0.004" stop-color="#ffc96a"></stop><stop offset="0.578" stop-color="#ffc887"></stop><stop offset="1" stop-color="#ffc797"></stop><stop offset="1" stop-color="#ffc797"></stop></linearGradient><linearGradient x1="43.5" y1="68.994" x2="43.5" y2="51.994" gradientUnits="userSpaceOnUse" id="color-5"><stop offset="0" stop-color="#ff8b67"></stop><stop offset="0.847" stop-color="#ffa76a"></stop><stop offset="1" stop-color="#ffad6b"></stop></linearGradient><linearGradient x1="47" y1="6" x2="47" y2="32" gradientUnits="userSpaceOnUse" id="color-6"><stop offset="0" stop-color="#a4a4a4"></stop><stop offset="0.63" stop-color="#7f7f7f"></stop><stop offset="1" stop-color="#6f6f6f"></stop><stop offset="1" stop-color="#6f6f6f"></stop></linearGradient></defs><g fill="none" fill-rule="nonzero" stroke="none" stroke-width="1" stroke-linecap="butt" stroke-linejoin="miter" stroke-miterlimit="10" stroke-dasharray="" stroke-dashoffset="0" font-family="none" font-weight="none" font-size="none" text-anchor="none" style="mix-blend-mode: normal"><g transform="scale(4,4)"><path d="M60.357,47h-3.357c-1.105,0 -2,-0.895 -2,-2c0,-1.105 0.895,-2 2,-2h0.412c1.139,0 2.202,-0.721 2.497,-1.821c0.446,-1.663 -0.813,-3.179 -2.409,-3.179h-15.5v-11h14c2.335,0 4.22,-2.028 3.979,-4.41c-0.21,-2.075 -2.082,-3.59 -4.168,-3.59h-9.811c-1.105,0 -2,-0.895 -2,-2c0,-1.105 0.895,-2 2,-2h6.357c1.308,0 2.499,-0.941 2.63,-2.242c0.15,-1.497 -1.021,-2.758 -2.487,-2.758h-8c-0.828,0 -1.5,-0.672 -1.5,-1.5c0,-0.828 0.672,-1.5 1.5,-1.5h3.857c1.308,0 2.499,-0.941 2.63,-2.242c0.15,-1.497 -1.021,-2.758 -2.487,-2.758h-32.857c-1.308,0 -2.499,0.941 -2.63,2.242c-0.15,1.497 1.021,2.758 2.487,2.758h3.5c1.105,0 2,0.895 2,2c0,1.105 -0.895,2 -2,2h-12.811c-2.086,0 -3.958,1.514 -4.168,3.59c-0.241,2.382 1.644,4.41 3.979,4.41h2.5c1.933,0 3.5,1.567 3.5,3.5c0,1.933 -1.567,3.5 -3.5,3.5h-3.311c-2.086,0 -3.958,1.514 -4.168,3.59c-0.241,2.382 1.644,4.41 3.979,4.41h17v12h-14.412c-1.139,0 -2.202,0.721 -2.497,1.821c-0.446,1.663 0.813,3.179 2.409,3.179h1.5c1.105,0 2,0.895 2,2c0,1.105 -0.895,2 -2,2h-2.811c-2.086,0 -3.958,1.514 -4.168,3.59c-0.241,2.382 1.644,4.41 3.979,4.41h48.811c2.086,0 3.958,-1.514 4.168,-3.59c0.241,-2.382 -1.644,-4.41 -3.979,-4.41h-0.5c-0.828,0 -1.5,-0.672 -1.5,-1.5c0,-0.828 0.672,-1.5 1.5,-1.5h6c1.466,0 2.637,-1.261 2.487,-2.758c-0.13,-1.301 -1.322,-2.242 -2.63,-2.242z" fill="url(#color-1)"></path><path d="M60.357,47h-3.357c-1.105,0 -2,-0.895 -2,-2c0,-1.105 0.895,-2 2,-2h0.412c1.139,0 2.202,-0.721 2.497,-1.821c0.446,-1.663 -0.813,-3.179 -2.409,-3.179h-15.5v-11h14c2.335,0 4.22,-2.028 3.979,-4.41c-0.21,-2.075 -2.082,-3.59 -4.168,-3.59h-9.811c-1.105,0 -2,-0.895 -2,-2c0,-1.105 0.895,-2 2,-2h6.357c1.308,0 2.499,-0.941 2.63,-2.242c0.15,-1.497 -1.021,-2.758 -2.487,-2.758h-8c-0.828,0 -1.5,-0.672 -1.5,-1.5c0,-0.828 0.672,-1.5 1.5,-1.5h3.857c1.308,0 2.499,-0.941 2.63,-2.242c0.15,-1.497 -1.021,-2.758 -2.487,-2.758h-32.857c-1.308,0 -2.499,0.941 -2.63,2.242c-0.15,1.497 1.021,2.758 2.487,2.758h3.5c1.105,0 2,0.895 2,2c0,1.105 -0.895,2 -2,2h-12.811c-2.086,0 -3.958,1.514 -4.168,3.59c-0.241,2.382 1.644,4.41 3.979,4.41h2.5c1.933,0 3.5,1.567 3.5,3.5c0,1.933 -1.567,3.5 -3.5,3.5h-3.311c-2.086,0 -3.958,1.514 -4.168,3.59c-0.241,2.382 1.644,4.41 3.979,4.41h17v12h-14.412c-1.139,0 -2.202,0.721 -2.497,1.821c-0.446,1.663 0.813,3.179 2.409,3.179h1.5c1.105,0 2,0.895 2,2c0,1.105 -0.895,2 -2,2h-2.811c-2.086,0 -3.958,1.514 -4.168,3.59c-0.241,2.382 1.644,4.41 3.979,4.41h48.811c2.086,0 3.958,-1.514 4.168,-3.59c0.241,-2.382 -1.644,-4.41 -3.979,-4.41h-0.5c-0.828,0 -1.5,-0.672 -1.5,-1.5c0,-0.828 0.672,-1.5 1.5,-1.5h6c1.466,0 2.637,-1.261 2.487,-2.758c-0.13,-1.301 -1.322,-2.242 -2.63,-2.242z" fill="url(#color-2)"></path><path d="M50,12h-36c-2.209,0 -4,1.791 -4,4v36c0,2.209 1.791,4 4,4h36c2.209,0 4,-1.791 4,-4v-36c0,-2.209 -1.791,-4 -4,-4z" fill="url(#color-3)"></path><path d="M32,14.5v0c0,-1.381 -1.119,-2.5 -2.5,-2.5h-15.5c-2.209,0 -4,1.791 -4,4v25h10c1.657,0 3,-1.343 3,-3v0c0,-1.657 -1.343,-3 -3,-3h-1c-1.657,0 -3,-1.343 -3,-3v0c0,-1.657 1.343,-3 3,-3h4c1.657,0 3,-1.343 3,-3v0c0,-1.657 -1.343,-3 -3,-3h-3c-1.657,0 -3,-1.343 -3,-3v0c0,-1.657 1.343,-3 3,-3h9.5c1.381,0 2.5,-1.119 2.5,-2.5z" fill="url(#color-4)"></path><path d="M54,52v-13c-3.083,0 -10.118,0 -11.872,0c-1.451,0 -2.786,0.972 -3.068,2.395c-0.379,1.912 1.092,3.605 2.94,3.605h0.5c1.381,0 2.5,1.119 2.5,2.5c0,1.381 -1.119,2.5 -2.5,2.5h-6.369c-1.451,0 -2.789,0.972 -3.071,2.395c-0.379,1.912 1.092,3.605 2.94,3.605h14c2.209,0 4,-1.791 4,-4z" fill="url(#color-5)"></path><path d="M58,6h-14.015c-1.765,0 -2.648,2.133 -1.401,3.381l4.517,4.517l-12.065,12.066c-1.381,1.381 -1.381,3.619 0,5v0c1.381,1.381 3.619,1.381 5,0l12.066,-12.066l4.517,4.517c1.248,1.249 3.381,0.365 3.381,-1.4v-14.015c0,-1.105 -0.895,-2 -2,-2z" fill="url(#color-6)"></path></g></g></svg>